<svg width="250" height="512" xmlns="http://www.w3.org/2000/svg">

 <g>
  <title>background</title>
  <rect fill="none" id="canvas_background" height="514" width="252" y="-1" x="-1"/>
 </g>
 <g>
  <title>Layer 1</title>
  <path fill="#303c6c" id="svg_1" d="m124.334404,109.880159c20.6,0.1 37.3,-16.6 37.3,-37.3c0,-20.6 -16.7,-37.3 -37.3,-37.3c-20.6,0 -37.3,16.7 -37.3,37.3c0,20.6 16.7,37.3 37.3,37.3z"/>
  <path fill="#303c6c" id="svg_3" d="m161.734404,118.280159l-37.4,0l-37.4,0c-28.2,0 -46.6,24.8 -46.6,48.4l0,113.6c0,22 31,22 31,0l0,-105l6,0l0,285.6c0,30.4 42,29.4 43,0l0,-164.6l7,0l1,0l0,164.7c1.7,31.2 43,28.2 43,-0.1l0,-285.6l5,0l0,105c0,22 32,22 32,0l0,-113.6c0,-23.5 -18.5,-48.4 -46.6,-48.4z"/>
 </g>
</svg>